<svg width="58" height="58" viewBox="0 0 58 58" fill="none" xmlns="http://www.w3.org/2000/svg">
<g clip-path="url(#clip0_3_153)">
<path d="M47.125 23.5625C47.125 28.7621 45.4371 33.5652 42.5938 37.4621L56.9352 51.8148C58.3512 53.2309 58.3512 55.5305 56.9352 56.9465C55.5191 58.3625 53.2195 58.3625 51.8035 56.9465L37.4621 42.5938C33.5652 45.4484 28.7621 47.125 23.5625 47.125C10.5465 47.125 0 36.5785 0 23.5625C0 10.5465 10.5465 0 23.5625 0C36.5785 0 47.125 10.5465 47.125 23.5625ZM23.5625 39.875C25.7047 39.875 27.8259 39.4531 29.805 38.6333C31.7841 37.8135 33.5824 36.6119 35.0972 35.0972C36.6119 33.5824 37.8135 31.7841 38.6333 29.805C39.4531 27.8259 39.875 25.7047 39.875 23.5625C39.875 21.4203 39.4531 19.2991 38.6333 17.32C37.8135 15.3409 36.6119 13.5426 35.0972 12.0278C33.5824 10.5131 31.7841 9.31149 29.805 8.49172C27.8259 7.67194 25.7047 7.25 23.5625 7.25C21.4203 7.25 19.2991 7.67194 17.32 8.49172C15.3409 9.31149 13.5426 10.5131 12.0278 12.0278C10.5131 13.5426 9.31149 15.3409 8.49171 17.32C7.67193 19.2991 7.25 21.4203 7.25 23.5625C7.25 25.7047 7.67193 27.8259 8.49171 29.805C9.31149 31.7841 10.5131 33.5824 12.0278 35.0972C13.5426 36.6119 15.3409 37.8135 17.32 38.6333C19.2991 39.4531 21.4203 39.875 23.5625 39.875Z" fill="white"/>
</g>
<defs>
<clipPath id="clip0_3_153">
<rect width="58" height="58" fill="white"/>
</clipPath>
</defs>
</svg>
